{
	"asset":{
		"generator":"Khronos glTF Blender I/O v4.0.44",
		"version":"2.0"
	},
	"extensionsUsed":[
		"KHR_materials_transmission",
		"KHR_materials_ior"
	],
	"scene":0,
	"scenes":[
		{
			"name":"Scene",
			"nodes":[
				0,
				1,
				2,
				3,
				4,
				5
			]
		}
	],
	"nodes":[
		{
			"mesh":0,
			"name":"Plane",
			"scale":[
				10,
				10,
				10
			]
		},
		{
			"mesh":1,
			"name":"Cube",
			"rotation":[
				0,
				0.15468183159828186,
				0,
				0.9879644513130188
			],
			"translation":[
				0,
				1.0010000467300415,
				0
			]
		},
		{
			"mesh":2,
			"name":"Cube.001",
			"rotation":[
				0,
				-0.4378896653652191,
				0,
				0.8990287184715271
			],
			"scale":[
				0.4418147802352905,
				0.4418147802352905,
				0.4418147802352905
			],
			"translation":[
				-0.07937920093536377,
				2.4533724784851074,
				-0.10583877563476562
			]
		},
		{
			"mesh":3,
			"name":"Cube.002",
			"rotation":[
				0,
				-0.924308180809021,
				0,
				0.3816470205783844
			],
			"scale":[
				0.4418147802352905,
				0.4418147802352905,
				0.4418147802352905
			],
			"translation":[
				1.9196460247039795,
				0.46889984607696533,
				-0.6072487831115723
			]
		},
		{
			"mesh":4,
			"name":"Cube.003",
			"rotation":[
				0,
				-0.4465217590332031,
				0,
				0.8947727680206299
			],
			"scale":[
				1.2000001668930054,
				1.2000000476837158,
				1.2000001668930054
			],
			"translation":[
				-4.258445739746094,
				1.2010000944137573,
				-2.1829261779785156
			]
		},
		{
			"mesh":5,
			"name":"Cube.004",
			"rotation":[
				0,
				0.97735595703125,
				0,
				0.21160195767879486
			],
			"scale":[
				0.4418147802352905,
				0.4418147802352905,
				0.4418147802352905
			],
			"translation":[
				-2.8012959957122803,
				0.46889984607696533,
				-0.00036263465881347656
			]
		}
	],
	"materials":[
		{
			"doubleSided":true,
			"name":"Material.002",
			"pbrMetallicRoughness":{
				"baseColorFactor":[
					0.800000011920929,
					0.800000011920929,
					0.800000011920929,
					1
				],
				"metallicFactor":0,
				"roughnessFactor":0.5
			}
		},
		{
			"doubleSided":true,
			"extensions":{
				"KHR_materials_transmission":{
					"transmissionFactor":1
				},
				"KHR_materials_ior":{
					"ior":1.4500000476837158
				}
			},
			"name":"Material.001",
			"pbrMetallicRoughness":{
				"baseColorFactor":[
					0.800000011920929,
					0.800000011920929,
					0.800000011920929,
					1
				],
				"metallicFactor":0,
				"roughnessFactor":0.04545453190803528
			}
		},
		{
			"doubleSided":true,
			"name":"Material.003",
			"pbrMetallicRoughness":{
				"baseColorFactor":[
					0.7999992966651917,
					0.4125480651855469,
					0.20871947705745697,
					1
				],
				"metallicFactor":0,
				"roughnessFactor":0.038636356592178345
			}
		},
		{
			"doubleSided":true,
			"name":"Material.004",
			"pbrMetallicRoughness":{
				"baseColorFactor":[
					0.07022539526224136,
					0.15476901829242706,
					0.7999992966651917,
					1
				],
				"metallicFactor":0.9900000095367432,
				"roughnessFactor":0.209090918302536
			}
		},
		{
			"doubleSided":true,
			"name":"Material.005",
			"pbrMetallicRoughness":{
				"baseColorFactor":[
					0.29467976093292236,
					0.3634772002696991,
					0.3083326518535614,
					1
				],
				"metallicFactor":0,
				"roughnessFactor":0.5
			}
		},
		{
			"doubleSided":true,
			"name":"Material.006",
			"pbrMetallicRoughness":{
				"baseColorFactor":[
					0.7473733425140381,
					0.39797306060791016,
					0.7999992966651917,
					1
				],
				"metallicFactor":0.9900000095367432,
				"roughnessFactor":0.09772728383541107
			}
		}
	],
	"meshes":[
		{
			"name":"Plane",
			"primitives":[
				{
					"attributes":{
						"POSITION":0,
						"NORMAL":1,
						"TEXCOORD_0":2,
						"TANGENT":3
					},
					"indices":4,
					"material":0
				}
			]
		},
		{
			"name":"Cube.001",
			"primitives":[
				{
					"attributes":{
						"POSITION":5,
						"NORMAL":6,
						"TEXCOORD_0":7,
						"TANGENT":8
					},
					"indices":9,
					"material":1
				}
			]
		},
		{
			"name":"Cube.002",
			"primitives":[
				{
					"attributes":{
						"POSITION":10,
						"NORMAL":11,
						"TEXCOORD_0":12,
						"TANGENT":13
					},
					"indices":9,
					"material":2
				}
			]
		},
		{
			"name":"Cube.003",
			"primitives":[
				{
					"attributes":{
						"POSITION":14,
						"NORMAL":15,
						"TEXCOORD_0":16,
						"TANGENT":17
					},
					"indices":9,
					"material":3
				}
			]
		},
		{
			"name":"Cube.005",
			"primitives":[
				{
					"attributes":{
						"POSITION":18,
						"NORMAL":19,
						"TEXCOORD_0":20,
						"TANGENT":21
					},
					"indices":9,
					"material":4
				}
			]
		},
		{
			"name":"Cube.006",
			"primitives":[
				{
					"attributes":{
						"POSITION":22,
						"NORMAL":23,
						"TEXCOORD_0":24,
						"TANGENT":25
					},
					"indices":9,
					"material":5
				}
			]
		}
	],
	"accessors":[
		{
			"bufferView":0,
			"componentType":5126,
			"count":16,
			"max":[
				1,
				0,
				1
			],
			"min":[
				-1,
				0,
				-1
			],
			"type":"VEC3"
		},
		{
			"bufferView":1,
			"componentType":5126,
			"count":16,
			"type":"VEC3"
		},
		{
			"bufferView":2,
			"componentType":5126,
			"count":16,
			"type":"VEC2"
		},
		{
			"bufferView":3,
			"componentType":5126,
			"count":16,
			"type":"VEC4"
		},
		{
			"bufferView":4,
			"componentType":5123,
			"count":42,
			"type":"SCALAR"
		},
		{
			"bufferView":5,
			"componentType":5126,
			"count":129,
			"max":[
				1,
				1,
				1
			],
			"min":[
				-1,
				-1,
				-1
			],
			"type":"VEC3"
		},
		{
			"bufferView":6,
			"componentType":5126,
			"count":129,
			"type":"VEC3"
		},
		{
			"bufferView":7,
			"componentType":5126,
			"count":129,
			"type":"VEC2"
		},
		{
			"bufferView":8,
			"componentType":5126,
			"count":129,
			"type":"VEC4"
		},
		{
			"bufferView":9,
			"componentType":5123,
			"count":564,
			"type":"SCALAR"
		},
		{
			"bufferView":10,
			"componentType":5126,
			"count":129,
			"max":[
				1,
				1,
				1
			],
			"min":[
				-1,
				-1,
				-1
			],
			"type":"VEC3"
		},
		{
			"bufferView":11,
			"componentType":5126,
			"count":129,
			"type":"VEC3"
		},
		{
			"bufferView":12,
			"componentType":5126,
			"count":129,
			"type":"VEC2"
		},
		{
			"bufferView":13,
			"componentType":5126,
			"count":129,
			"type":"VEC4"
		},
		{
			"bufferView":14,
			"componentType":5126,
			"count":129,
			"max":[
				1,
				1,
				1
			],
			"min":[
				-1,
				-1,
				-1
			],
			"type":"VEC3"
		},
		{
			"bufferView":15,
			"componentType":5126,
			"count":129,
			"type":"VEC3"
		},
		{
			"bufferView":16,
			"componentType":5126,
			"count":129,
			"type":"VEC2"
		},
		{
			"bufferView":17,
			"componentType":5126,
			"count":129,
			"type":"VEC4"
		},
		{
			"bufferView":18,
			"componentType":5126,
			"count":129,
			"max":[
				1,
				1,
				1
			],
			"min":[
				-1,
				-1,
				-1
			],
			"type":"VEC3"
		},
		{
			"bufferView":19,
			"componentType":5126,
			"count":129,
			"type":"VEC3"
		},
		{
			"bufferView":20,
			"componentType":5126,
			"count":129,
			"type":"VEC2"
		},
		{
			"bufferView":21,
			"componentType":5126,
			"count":129,
			"type":"VEC4"
		},
		{
			"bufferView":22,
			"componentType":5126,
			"count":129,
			"max":[
				1,
				1,
				1
			],
			"min":[
				-1,
				-1,
				-1
			],
			"type":"VEC3"
		},
		{
			"bufferView":23,
			"componentType":5126,
			"count":129,
			"type":"VEC3"
		},
		{
			"bufferView":24,
			"componentType":5126,
			"count":129,
			"type":"VEC2"
		},
		{
			"bufferView":25,
			"componentType":5126,
			"count":129,
			"type":"VEC4"
		}
	],
	"bufferViews":[
		{
			"buffer":0,
			"byteLength":192,
			"byteOffset":0,
			"target":34962
		},
		{
			"buffer":0,
			"byteLength":192,
			"byteOffset":192,
			"target":34962
		},
		{
			"buffer":0,
			"byteLength":128,
			"byteOffset":384,
			"target":34962
		},
		{
			"buffer":0,
			"byteLength":256,
			"byteOffset":512,
			"target":34962
		},
		{
			"buffer":0,
			"byteLength":84,
			"byteOffset":768,
			"target":34963
		},
		{
			"buffer":0,
			"byteLength":1548,
			"byteOffset":852,
			"target":34962
		},
		{
			"buffer":0,
			"byteLength":1548,
			"byteOffset":2400,
			"target":34962
		},
		{
			"buffer":0,
			"byteLength":1032,
			"byteOffset":3948,
			"target":34962
		},
		{
			"buffer":0,
			"byteLength":2064,
			"byteOffset":4980,
			"target":34962
		},
		{
			"buffer":0,
			"byteLength":1128,
			"byteOffset":7044,
			"target":34963
		},
		{
			"buffer":0,
			"byteLength":1548,
			"byteOffset":8172,
			"target":34962
		},
		{
			"buffer":0,
			"byteLength":1548,
			"byteOffset":9720,
			"target":34962
		},
		{
			"buffer":0,
			"byteLength":1032,
			"byteOffset":11268,
			"target":34962
		},
		{
			"buffer":0,
			"byteLength":2064,
			"byteOffset":12300,
			"target":34962
		},
		{
			"buffer":0,
			"byteLength":1548,
			"byteOffset":14364,
			"target":34962
		},
		{
			"buffer":0,
			"byteLength":1548,
			"byteOffset":15912,
			"target":34962
		},
		{
			"buffer":0,
			"byteLength":1032,
			"byteOffset":17460,
			"target":34962
		},
		{
			"buffer":0,
			"byteLength":2064,
			"byteOffset":18492,
			"target":34962
		},
		{
			"buffer":0,
			"byteLength":1548,
			"byteOffset":20556,
			"target":34962
		},
		{
			"buffer":0,
			"byteLength":1548,
			"byteOffset":22104,
			"target":34962
		},
		{
			"buffer":0,
			"byteLength":1032,
			"byteOffset":23652,
			"target":34962
		},
		{
			"buffer":0,
			"byteLength":2064,
			"byteOffset":24684,
			"target":34962
		},
		{
			"buffer":0,
			"byteLength":1548,
			"byteOffset":26748,
			"target":34962
		},
		{
			"buffer":0,
			"byteLength":1548,
			"byteOffset":28296,
			"target":34962
		},
		{
			"buffer":0,
			"byteLength":1032,
			"byteOffset":29844,
			"target":34962
		},
		{
			"buffer":0,
			"byteLength":2064,
			"byteOffset":30876,
			"target":34962
		}
	],
	"buffers":[
		{
			"byteLength":32940,
			"uri":"default.bin"
		}
	]
}
